# xmcd
# Copyright (C) 1995-1998 Ti Kan
#
# Track frame offsets:
#       150
#       20536
#       41427
#       63176
#       83094
#       97456
#       112574
#
# Disc length: 1719 seconds
#
# Revision: 0
# Processed by: cddbd v1.5.2PL0 Copyright (c) Steve Scherf et al.
# Submitted via: CD-Import v1.0
#
DISCID=4c06b507
DTITLE=Transatlantic - 
DYEAR=14
DGENRE=
TTITLE0=Beyond The Sun
TTITLE1=Born With A Broken
TTITLE2=Right Back To You
TTITLE3=Devil's Night
TTITLE4=Verschmelze Mit Der Strasse
TTITLE5=Nie Meh
TTITLE6=Last Kiss
EXTD=
EXTT0=
EXTT1=
EXTT2=
EXTT3=
EXTT4=
EXTT5=
EXTT6=
PLAYORDER=
